<svg xmlns="http://www.w3.org/2000/svg" viewBox="0 0 64 64" id="linkedin">
  <path fill="#0e76cc" fill-rule="evenodd" d="m60,12c0-4.42-3.58-8-8-8H12C7.58,4,4,7.58,4,12v40c0,4.42,3.58,8,8,8h40c4.42,0,8-3.58,8-8V12h0Z"></path>
  <path fill="#fff" fill-rule="evenodd" d="m34.38,28.27v-2c0-.55-.45-1-1-1h-6.5c-.27,0-.52.11-.71.29-.19.19-.29.44-.29.71v24.5c0,.27.1.52.29.71s.44.29.71.29h6.5c.26,0,.52-.1.71-.29s.29-.44.29-.71v-14c0-2.48,2.01-4.5,4.5-4.5s4.5,2.02,4.5,4.5v14c0,.27.1.52.29.71s.44.29.71.29h6.5c.55,0,1-.45,1-1v-15.5c0-6.85-3.2-9.85-8.25-10.5-6.06-.78-9.25,3.5-9.25,3.5h0Zm-13.25-2c0-.26-.11-.52-.29-.71-.19-.19-.44-.29-.71-.29h-6.5c-.27,0-.52.11-.71.29-.19.19-.29.44-.29.71v24.5c0,.27.1.52.29.71s.44.29.71.29h6.5c.26,0,.52-.1.71-.29s.29-.44.29-.71v-24.5h0Zm-4.25-14.05c2.62,0,4.75,2.13,4.75,4.75s-2.13,4.75-4.75,4.75-4.75-2.13-4.75-4.75,2.13-4.75,4.75-4.75h0Z"></path>
</svg>
